<svg width="48" height="48" viewBox="0 0 48 48" fill="none" xmlns="http://www.w3.org/2000/svg">
<rect width="48" height="48" rx="8" fill="white" fill-opacity="0.16"/>
<path d="M25.305 34.5L24 33.75L27 28.5H31.5C31.8978 28.5 32.2794 28.342 32.5607 28.0607C32.842 27.7794 33 27.3978 33 27V18C33 17.6022 32.842 17.2206 32.5607 16.9393C32.2794 16.658 31.8978 16.5 31.5 16.5H16.5C16.1022 16.5 15.7206 16.658 15.4393 16.9393C15.158 17.2206 15 17.6022 15 18V27C15 27.3978 15.158 27.7794 15.4393 28.0607C15.7206 28.342 16.1022 28.5 16.5 28.5H23.25V30H16.5C15.7044 30 14.9413 29.6839 14.3787 29.1213C13.8161 28.5587 13.5 27.7956 13.5 27V18C13.5 17.2044 13.8161 16.4413 14.3787 15.8787C14.9413 15.3161 15.7044 15 16.5 15H31.5C32.2956 15 33.0587 15.3161 33.6213 15.8787C34.1839 16.4413 34.5 17.2044 34.5 18V27C34.5 27.7956 34.1839 28.5587 33.6213 29.1213C33.0587 29.6839 32.2956 30 31.5 30H27.87L25.305 34.5Z" fill="white"/>
<path d="M30 19.5H18V21H30V19.5Z" fill="white"/>
<path d="M25.5 24H18V25.5H25.5V24Z" fill="white"/>
</svg>
