<svg width="48" height="48" viewBox="0 0 48 48" fill="none" xmlns="http://www.w3.org/2000/svg">
<rect width="48" height="48" rx="8" fill="white" fill-opacity="0.16"/>
<path d="M18 25.5C18.8284 25.5 19.5 24.8284 19.5 24C19.5 23.1716 18.8284 22.5 18 22.5C17.1716 22.5 16.5 23.1716 16.5 24C16.5 24.8284 17.1716 25.5 18 25.5Z" fill="white"/>
<path d="M24 25.5C24.8284 25.5 25.5 24.8284 25.5 24C25.5 23.1716 24.8284 22.5 24 22.5C23.1716 22.5 22.5 23.1716 22.5 24C22.5 24.8284 23.1716 25.5 24 25.5Z" fill="white"/>
<path d="M30 25.5C30.8284 25.5 31.5 24.8284 31.5 24C31.5 23.1716 30.8284 22.5 30 22.5C29.1716 22.5 28.5 23.1716 28.5 24C28.5 24.8284 29.1716 25.5 30 25.5Z" fill="white"/>
</svg>
